<?xml version="1.0" standalone="no"?><!DOCTYPE svg PUBLIC "-//W3C//DTD SVG 1.1//EN" "http://www.w3.org/Graphics/SVG/1.1/DTD/svg11.dtd"><svg t="1652168302484" class="icon" viewBox="0 0 1024 1024" version="1.1" xmlns="http://www.w3.org/2000/svg" p-id="10277" xmlns:xlink="http://www.w3.org/1999/xlink" width="16" height="16"><defs><style type="text/css">@font-face { font-family: feedback-iconfont; src: url("//at.alicdn.com/t/font_1031158_u69w8yhxdu.woff2?t=1630033759944") format("woff2"), url("//at.alicdn.com/t/font_1031158_u69w8yhxdu.woff?t=1630033759944") format("woff"), url("//at.alicdn.com/t/font_1031158_u69w8yhxdu.ttf?t=1630033759944") format("truetype"); }
</style></defs><path d="M102.4 102.4m102.4 0l614.4 0q102.4 0 102.4 102.4l0 614.4q0 102.4-102.4 102.4l-614.4 0q-102.4 0-102.4-102.4l0-614.4q0-102.4 102.4-102.4Z" fill="#77C2F8" p-id="10278"></path><path d="M318.848 525.738667a51.2 51.2 0 0 0-74.496 70.272l122.88 130.304a51.2 51.2 0 0 0 74.496 0l337.92-358.4a51.2 51.2 0 1 0-74.496-70.229334L404.48 616.533333l-85.632-90.837333z" fill="#FFFFFF" p-id="10279"></path></svg>